<?xml version="1.0" standalone="no"?>
<!DOCTYPE svg PUBLIC "-//W3C//DTD SVG 20010904//EN"
 "http://www.w3.org/TR/2001/REC-SVG-20010904/DTD/svg10.dtd">
<svg version="1.0" xmlns="http://www.w3.org/2000/svg"
 width="1022.000000pt" height="427.000000pt" viewBox="0 0 1022.000000 427.000000"
 preserveAspectRatio="xMidYMid meet">
<metadata>
Created by potrace 1.15, written by Peter Selinger 2001-2017
</metadata>
<g transform="translate(0.000000,427.000000) scale(0.100000,-0.100000)"
fill="#ff8872" stroke="none">
<path d="M4150 4208 c-431 -250 -583 -444 -494 -631 l17 -36 56 45 c134 108
221 159 361 211 84 32 108 36 215 41 91 3 137 0 185 -12 69 -17 210 -83 210
-97 0 -5 3 -8 8 -7 4 1 16 -3 27 -9 11 -7 34 -20 52 -30 393 -224 470 -273
435 -273 -6 0 -188 104 -262 150 -37 23 -146 85 -155 89 -5 2 -23 13 -40 25
-94 66 -219 122 -318 142 -199 41 -434 -37 -673 -222 -109 -84 -208 -193 -299
-331 -99 -148 -209 -246 -400 -358 -168 -99 -277 -146 -470 -205 -552 -169
-1124 -155 -1498 36 -98 50 -149 86 -234 164 -215 200 -376 247 -481 142 -93
-93 -132 -247 -133 -516 0 -153 4 -184 20 -158 5 9 13 6 31 -10 13 -12 32 -23
42 -23 10 -1 21 -5 25 -10 5 -4 0 -5 -9 -2 -12 4 -18 1 -18 -8 0 -20 -18 -19
-63 4 l-36 19 -30 -62 c-60 -120 -106 -297 -141 -533 -22 -156 -50 -447 -50
-533 0 -34 -6 -64 -16 -78 -12 -18 -14 -42 -10 -130 3 -59 8 -246 12 -417 3
-171 7 -324 9 -342 4 -47 37 -86 102 -121 108 -57 241 -84 513 -102 227 -15
7178 -26 7465 -11 603 30 1105 101 1590 225 279 71 338 92 390 138 121 107
164 291 115 496 -29 121 -75 211 -177 347 -113 152 -199 231 -306 284 -139 68
-250 90 -673 131 -329 32 -499 56 -744 106 -139 29 -162 38 -205 84 -98 103
-222 182 -480 305 -99 47 -214 102 -255 123 l-75 37 -1 50 c-2 43 -6 53 -35
78 -64 53 -178 72 -244 40 -35 -17 -35 -17 -114 23 l-79 39 5 61 c5 58 4 61
-26 87 -18 14 -61 36 -97 47 -72 22 -123 19 -170 -9 -28 -17 -30 -17 -105 26
-42 24 -82 43 -88 43 -14 0 -14 7 1 69 8 38 8 57 0 75 -24 52 -198 111 -259
87 l-28 -11 32 6 c72 12 208 -34 239 -81 22 -33 6 -99 -51 -220 -60 -125 -95
-169 -170 -210 l-63 -36 -35 21 c-45 27 -49 38 -48 134 2 106 18 172 67 267
29 56 30 75 7 84 -17 6 -17 7 1 21 18 12 18 14 3 14 -10 0 -20 -7 -23 -15 -5
-12 -15 -10 -57 12 -29 14 -53 26 -55 28 -1 1 9 22 23 46 35 63 33 102 -7 130
l-33 22 28 -29 c15 -17 27 -42 27 -55 0 -29 -63 -131 -104 -168 -16 -16 -24
-31 -21 -42 3 -10 0 -21 -6 -25 -9 -5 -10 -2 -5 11 3 10 -24 -11 -61 -46 -76
-71 -186 -149 -212 -149 -22 0 -36 11 -50 37 -27 52 -2 129 73 228 70 91 126
201 99 193 -11 -3 -123 65 -123 74 0 12 13 9 34 -7 33 -25 43 -16 11 10 -19
15 -26 27 -19 32 22 17 44 59 44 85 0 57 -113 145 -217 169 -39 9 -62 9 -98 0
-54 -14 -49 -17 -230 149 -161 148 -339 299 -461 390 -119 89 -295 200 -316
200 -7 -1 -60 -28 -118 -62z m1296 -718 c64 -31 134 -98 134 -126 0 -28 -37
-78 -92 -127 -60 -52 -138 -110 -138 -102 0 3 -10 -3 -22 -14 -39 -37 -241
-133 -291 -138 -62 -7 -77 6 -77 69 0 79 47 147 163 232 43 32 147 165 147
189 0 9 -4 19 -10 22 -19 12 -10 24 23 28 55 8 99 -1 163 -33z m1252 -795 c66
-20 112 -58 112 -93 0 -45 -20 -102 -68 -200 -51 -104 -105 -165 -170 -194
-40 -18 -45 -18 -68 -3 -33 21 -44 54 -44 129 0 73 19 151 60 248 28 66 29 72
14 89 -15 17 -14 18 17 28 50 14 89 13 147 -4z m483 -261 c69 -22 89 -45 89
-104 0 -53 -27 -145 -65 -220 -27 -53 -78 -104 -119 -120 -39 -14 -76 11 -94
66 -20 57 -10 213 18 287 20 54 21 60 5 77 -15 17 -14 18 22 27 42 11 76 8
144 -13z m1439 -794 c80 -11 277 -34 440 -50 403 -41 516 -63 645 -128 81 -40
217 -153 203 -167 -12 -12 -492 -89 -718 -115 -52 -6 -149 -18 -215 -25 -66
-8 -154 -17 -194 -20 -105 -7 -142 -15 -134 -29 4 -6 -1 -5 -10 3 -11 8 -30
11 -54 8 -21 -3 -70 -8 -110 -11 l-72 -6 -7 35 c-3 19 -9 35 -13 35 -3 0 -7
15 -8 34 -2 19 -8 47 -15 63 -6 15 -10 33 -9 40 5 35 -80 299 -102 314 -5 3
-8 9 -7 13 2 13 -34 65 -42 60 -4 -3 -5 1 -3 8 4 11 33 8 143 -14 76 -15 203
-36 282 -48z m1413 -500 c21 -27 55 -87 76 -132 94 -201 95 -408 5 -544 -47
-71 -90 -97 -224 -137 -348 -105 -835 -198 -1270 -241 -85 -9 -209 -21 -275
-28 -160 -15 -4897 -22 -6575 -9 -1017 8 -1233 12 -1325 26 -200 28 -316 70
-364 131 -18 22 -21 41 -21 112 l0 85 413 -7 c425 -7 1363 -28 2037 -46 2131
-57 3290 -74 4010 -60 491 9 796 21 968 36 l72 6 0 56 0 55 -92 -7 c-369 -26
-1636 -32 -2478 -11 -113 3 -549 12 -970 20 -421 8 -954 20 -1185 25 -518 12
-1299 27 -2134 40 -349 5 -637 13 -640 16 -3 3 -8 106 -10 229 l-3 223 58 4
c33 2 69 1 80 -3 20 -7 189 -16 484 -25 58 -2 184 -8 280 -14 96 -6 202 -10
235 -10 33 0 125 -3 205 -6 80 -4 219 -8 310 -9 91 -1 186 -5 210 -9 92 -13
976 -21 2320 -20 1677 1 1711 1 2275 14 248 5 605 12 795 15 333 6 571 19 885
51 83 8 171 14 198 14 26 -1 53 2 59 6 13 8 74 13 156 13 24 0 42 4 39 8 -3 4
43 9 101 11 58 1 111 7 117 12 7 6 19 8 27 5 8 -3 68 2 134 10 65 9 130 16
143 16 13 -1 51 4 85 10 33 6 70 10 81 10 59 -2 619 90 633 104 15 15 41 -1
75 -45z"/>
</g>
</svg>
